<?xml version="1.0" standalone="no"?>
<!DOCTYPE svg PUBLIC "-//W3C//DTD SVG 20010904//EN"
 "http://www.w3.org/TR/2001/REC-SVG-20010904/DTD/svg10.dtd">
<svg version="1.0" xmlns="http://www.w3.org/2000/svg"
 width="512.000000pt" height="512.000000pt" viewBox="0 0 512.000000 512.000000"
 preserveAspectRatio="xMidYMid meet">

<g transform="translate(0.000000,512.000000) scale(0.100000,-0.100000)"
fill="#000000" stroke="none">
<path d="M1754 4965 c-592 -85 -1107 -442 -1392 -965 -240 -441 -288 -996
-127 -1477 211 -632 738 -1099 1400 -1239 167 -36 450 -44 627 -19 230 33 447
105 651 218 l90 49 666 -664 c769 -767 714 -723 896 -723 139 1 196 24 291
119 95 95 118 152 119 292 0 96 -2 103 -37 175 -35 70 -70 107 -618 654 l-580
580 -47 -48 -48 -47 572 -572 c628 -629 623 -623 623 -739 0 -111 -47 -192
-141 -244 -47 -26 -64 -30 -134 -30 -64 0 -89 5 -125 24 -31 16 -248 225 -683
659 -350 350 -636 639 -635 643 2 3 46 41 98 85 222 187 416 460 529 746 43
108 87 282 107 418 24 169 15 461 -20 625 -158 747 -718 1304 -1466 1460 -159
33 -456 43 -616 20z m591 -155 c543 -116 983 -459 1220 -953 283 -589 208
-1287 -193 -1802 -448 -577 -1206 -810 -1904 -585 -127 41 -353 156 -468 237
-122 87 -316 281 -403 403 -129 182 -239 436 -287 665 -31 148 -38 414 -15
576 103 734 663 1325 1382 1458 161 30 153 30 368 26 156 -3 222 -8 300 -25z"/>
<path d="M1870 4560 c-645 -63 -1173 -545 -1289 -1178 -28 -151 -34 -259 -21
-392 32 -348 177 -658 420 -900 670 -669 1774 -535 2270 275 85 138 151 313
186 490 27 136 25 407 -4 542 -121 562 -540 998 -1086 1128 -161 39 -318 50
-476 35z m400 -160 c513 -104 914 -508 1026 -1030 22 -106 29 -298 15 -414
-104 -825 -926 -1347 -1716 -1090 -195 64 -354 163 -511 319 -196 194 -308
399 -366 668 -28 132 -30 368 -5 499 54 271 173 495 367 688 215 215 474 342
770 379 107 14 303 5 420 -19z"/>
</g>
</svg>
